Coordinates
version=1
nRows=12
nColumns=34
inDegrees=yes

Units are S.I. units (second, meters, Newtons, ...)
If the header above contains a line with 'inDegrees', this indicates whether rotational values are in degrees (yes) or radians (no).

endheader
time	pelvis_tilt	pelvis_list	pelvis_rotation	pelvis_tx	pelvis_ty	pelvis_tz	hip_flexion_r	hip_adduction_r	hip_rotation_r	knee_angle_r	ankle_angle_r	subtalar_angle_r	mtp_angle_r	hip_flexion_l	hip_adduction_l	hip_rotation_l	knee_angle_l	ankle_angle_l	subtalar_angle_l	mtp_angle_l	lumbar_extension	lumbar_bending	lumbar_rotation	arm_flex_r	arm_add_r	arm_rot_r	elbow_flex_r	pro_sup_r	arm_flex_l	arm_add_l	arm_rot_l	elbow_flex_l	pro_sup_l
      4.20000000	    -27.98317712	      5.35868442	     -0.87012718	      0.86409538	      0.84643879	     -0.05585210	     66.38891331	     -9.31171013	     -0.19989937	     72.12526757	     31.40837514	     -8.57744477	      0.00000000	     64.02222925	     -6.28105183	     -0.97214278	     70.06096380	     28.44488033	     -2.13102890	      0.00000000	    -24.47540108	     -0.12317572	     -2.37651934	     21.71924902	     -8.59305074	     12.90985563	     31.84209489	     87.32808581	     25.34484529	     -9.02908551	      3.43079252	     25.45028809	     88.04303194
      4.21666670	    -26.71908023	      5.02761831	     -0.55934213	      0.86938404	      0.86860270	     -0.04888213	     62.57025763	     -8.84634984	     -0.65509510	     68.37960436	     29.14465181	     -9.54964886	      0.00000000	     60.73543595	     -6.30647378	     -0.97005348	     66.60417951	     25.68459231	     -2.18526450	      0.00000000	    -24.23955457	     -0.31883341	     -1.94194814	     20.94272437	     -8.18485200	     12.45400779	     31.43182040	     87.92110889	     24.47906285	     -8.91080406	      3.08090304	     25.38115018	     87.68155074
      4.23333330	    -25.29396618	      4.83146682	     -0.31352600	      0.88237766	      0.88564617	     -0.04873694	     58.35602039	     -8.60528722	     -1.09852678	     64.65232577	     26.73135077	    -10.57744840	      0.00000000	     56.75560490	     -6.27632712	     -1.19342436	     62.83355791	     23.08928816	     -1.81054332	      0.00000000	    -23.61331232	     -0.41158260	     -1.58281829	     19.64747872	     -7.84697851	     11.84537181	     30.72284348	     88.48883511	     23.06391152	     -8.48640582	      2.80207039	     25.43552524	     87.35720747
      4.25000000	    -23.98892300	      4.62134060	     -0.00685315	      0.88675172	      0.90508807	     -0.04770186	     54.04894840	     -8.29897203	     -1.57501425	     60.27007224	     24.39381822	    -11.51621984	      0.00000000	     52.82589494	     -6.05911705	     -1.29619108	     58.63649588	     20.50554182	     -1.72368916	      0.00000000	    -22.66815899	     -0.39231473	     -1.16196926	     18.23579219	     -7.63776754	     11.11837211	     30.09227622	     89.05590932	     21.67739234	     -7.98936773	      2.55939767	     25.82048276	     87.07996623
      4.26666670	    -22.94359005	      4.51871276	      0.19413727	      0.88866032	      0.92352045	     -0.04812384	     50.30900823	     -8.05713683	     -1.98129250	     55.85352502	     21.58212159	    -12.69670716	      0.00000000	     49.15788475	     -5.65803729	     -1.35922908	     54.25303024	     17.81563651	     -1.85836407	      0.00000000	    -21.37270413	     -0.35944086	     -0.75550783	     16.97502415	     -7.63152353	     10.42410892	     29.66502816	     89.63223303	     20.47072634	     -7.42333131	      2.37912804	     26.51758583	     86.86739590
      4.28333330	    -22.25053380	      4.46937461	      0.44259029	      0.89245051	      0.93850863	     -0.04930014	     47.18669103	     -7.93669597	     -2.15324641	     51.63746438	     18.80831006	    -13.67428752	      0.00000000	     46.07607128	     -5.11202534	     -1.25056360	     50.05545680	     15.11955539	     -2.21036943	      0.00000000	    -19.60997822	     -0.29137589	     -0.36017359	     15.69237123	     -7.74971173	      9.84196441	     29.45309944	     90.21756414	     19.21939066	     -6.74960113	      2.25895439	     27.48980598	     86.73546941
      4.30000000	    -21.80565470	      4.34365681	      0.76848405	      0.89296198	      0.96103912	     -0.04574009	     44.07632542	     -7.61624352	     -2.41589253	     46.61809995	     15.43571503	    -14.68909571	      0.00000000	     43.00388746	     -4.62685514	     -1.03760997	     44.97217879	     12.02783093	     -2.56791719	      0.00000000	    -18.04889028	     -0.17053035	      0.05275732	     14.80503138	     -7.75631973	      9.41217871	     29.44361289	     90.83573490	     18.37224077	     -6.18128965	      2.18875071	     28.69802324	     86.68188904
      4.31666670	    -20.74845251	      4.23048356	      1.12920124	      0.90750178	      0.97983543	     -0.04705539	     39.57095496	     -7.40398911	     -2.83845618	     41.00594294	     11.88983799	    -15.15743288	      0.00000000	     38.77103989	     -4.17595026	     -0.92914166	     39.44831394	      8.66117944	     -2.41462976	      0.00000000	    -16.70077575	      0.06659126	      0.17913263	     13.64614428	     -7.79633925	      9.01906877	     29.11571947	     91.45421272	     17.09654339	     -5.53831532	      2.29389213	     29.73393753	     86.71448435
      4.33333330	    -19.53539940	      4.12542198	      1.54309659	      0.91344704	      0.99757511	     -0.04648633	     34.97792556	     -7.15604552	     -3.44506015	     35.36832822	      8.63170998	    -15.36721600	      0.00000000	     34.31455118	     -3.74859844	     -0.73746652	     33.68423639	      5.29273673	     -2.06697870	      0.00000000	    -15.56442813	      0.24977374	      0.32021985	     12.52916752	     -7.82951664	      8.73691149	     28.88671197	     92.09514349	     15.89955897	     -5.04779348	      2.51852382	     30.84701053	     86.81867167
      4.35000000	    -18.27298125	      4.04969315	      1.85391960	      0.92049418	      1.00935711	     -0.04497834	     30.52009495	     -6.84761133	     -4.09636375	     30.06221268	      5.64858967	    -15.42683526	      0.00000000	     29.92738604	     -3.49715634	     -0.61161004	     28.28331824	      2.07112441	     -1.69830912	      0.00000000	    -14.36031599	      0.36541049	      0.48887347	     11.41904281	     -7.84435440	      8.56669694	     28.57817927	     92.72522634	     14.73301670	     -4.73067794	      2.80868100	     31.95969935	     86.98087506
      4.36666670	    -18.04576825	      4.00293425	      2.25712927	      0.93137745	      1.01849262	     -0.04462685	     27.27261204	     -6.70093342	     -5.19256557	     25.33577635	      3.42566830	    -14.52693742	      0.00000000	     26.86172622	     -3.33769696	     -0.99898046	     23.42060114	     -0.59696444	     -0.62029668	      0.00000000	    -11.60708629	      0.35616632	      0.59943380	      9.70720435	     -7.86932052	      8.57472158	     28.28035673	     92.94420339	     13.11405058	     -4.44320222	      3.01718653	     32.40602651	     87.06314169
      4.38333330	    -15.85993790	      3.91312337	      2.55278289	      0.94289092	      1.02949701	     -0.04747839	     21.70702694	     -6.40459985	     -6.45060733	     20.38909862	      0.95737487	    -14.15517454	      0.00000000	     21.59139852	     -3.12234944	     -0.63905389	     18.42538225	     -2.99270268	     -0.03631230	      0.00000000	    -11.54941891	      0.53606276	      0.60103078	      8.79915574	     -8.00893441	      8.31311248	     27.86699466	     93.45644251	     11.86454888	     -4.28625964	      3.51880142	     33.57643080	     87.30216917
